<svg width="300" height="300" viewBox="0 0 300 300" fill="none" xmlns="http://www.w3.org/2000/svg">
<path d="M150 300L100.012 279.998V159.984L150 179.986V300Z" fill="#0093C4"/>
<path d="M199.988 279.998V159.984L250.012 140.016V259.995L199.988 279.998Z" fill="#4FC3F7"/>
<path d="M49.9882 259.995V140.017L0 120.014V239.993L49.9882 259.995Z" fill="#0093C4"/>
<path d="M150 179.986V120.014L199.988 100.012V159.983L150 179.986Z" fill="#4FC3F7"/>
<path d="M250.012 80.0094V140.016L300 120.014V60.0071L250.012 80.0094Z" fill="#4FC3F7"/>
<path d="M100.012 159.984V100.012L49.9883 80.0094V140.016L100.012 159.984Z" fill="#0093C4"/>
<path d="M199.988 100.012L100.012 60.0071L150 40.0048L250.012 80.0095L199.988 100.012Z" fill="#8BF6FF"/>
<path d="M150 0L100.012 20.0024L150 40.0047L199.988 20.0024L150 0Z" fill="#8BF6FF"/>
</svg>
